<svg xmlns="http://www.w3.org/2000/svg" viewBox="0 0 500 500">
  <defs>
    <linearGradient id="engineGrad" x1="0" y1="0" x2="1" y2="1">
      <stop offset="0%" stop-color="#b9b9b9"/>
      <stop offset="100%" stop-color="#6f6f6f"/>
    </linearGradient>
    <linearGradient id="gearGrad" x1="0" y1="0" x2="1" y2="0">
      <stop offset="0%" stop-color="#f5d649"/>
      <stop offset="100%" stop-color="#d2a91e"/>
    </linearGradient>
  </defs>
  <rect width="500" height="500" rx="50" fill="#111"/>
  <rect x="110" y="160" width="280" height="170" rx="28" fill="url(#engineGrad)"/>
  <rect x="140" y="210" width="220" height="90" rx="18" fill="#1e1e1e"/>
  <circle cx="170" cy="255" r="30" fill="url(#gearGrad)"/>
  <circle cx="170" cy="255" r="16" fill="#111"/>
  <path d="M340 245h48v32h-48z" fill="#1e1e1e"/>
  <path d="M120 250h-50v20h50z" fill="#313131"/>
  <path d="M170 315h120v12H170z" fill="#444"/>
  <path d="M250 180c0-12 10-22 22-22h38c12 0 22 10 22 22v14h-82z" fill="#2d2d2d"/>
  <path d="M290 180v-16" stroke="#f5d649" stroke-width="10" stroke-linecap="round"/>
  <path d="M280 180v-16" stroke="#f5d649" stroke-width="6" stroke-linecap="round"/>
</svg>